<?xml version="1.0" encoding="UTF-8"?>
<svg version="1.1" xmlns="http://www.w3.org/2000/svg" width="512" height="512">
<path d="M0 0 C45.25736566 -1.81677484 90.04872671 18.90919555 122.81201172 49.09130859 C155.55961029 79.34996924 176.60391022 122.5243626 179.81201172 167.09130859 C181.69003915 214.79688777 170.31892059 259.58830628 139.81201172 297.09130859 C139.0753125 298.00734863 139.0753125 298.00734863 138.32373047 298.94189453 C122.46876151 318.53052043 102.31611369 335.57339477 79.03466797 345.63818359 C78.01824219 346.08742188 77.00181641 346.53666016 75.95458984 346.99951172 C73.96206999 347.86752766 71.9545033 348.70210818 69.93115234 349.49560547 C61.32149038 353.25157792 58.10965588 358.98750168 53.81201172 367.09130859 C52.56620673 369.25463979 51.31493503 371.41483242 50.05810547 373.57177734 C48.78655326 375.80630562 47.51708789 378.04202245 46.24951172 380.27880859 C44.84435694 382.74948456 43.43749899 385.21918965 42.03076172 387.68896484 C41.67783554 388.30906433 41.32490936 388.92916382 40.96128845 389.5680542 C37.41417126 395.79768927 33.83524588 402.00882872 30.24951172 408.21630859 C29.64099365 409.26987549 29.03247559 410.32344238 28.40551758 411.40893555 C27.17250041 413.54337349 25.93934579 415.67773204 24.70605469 417.81201172 C22.73059196 421.23227665 20.757264 424.65376494 18.78466797 428.07568359 C18.11287759 429.24088729 17.441084 430.40608913 16.76928711 431.57128906 C15.51178733 433.75250297 14.25444937 435.93381017 12.99731445 438.11523438 C11.84885968 440.10670211 10.69860428 442.09713274 9.54638672 444.08642578 C8.31926257 446.21247365 7.10141128 448.3438863 5.89013672 450.47900391 C5.26623047 451.57051758 4.64232422 452.66203125 3.99951172 453.78662109 C3.43619141 454.77936035 2.87287109 455.77209961 2.29248047 456.79492188 C0.81201172 459.09130859 0.81201172 459.09130859 -1.18798828 460.09130859 C-6.46932045 460.66536644 -6.46932045 460.66536644 -9.10986328 458.55615234 C-11.78651784 455.38139853 -13.61890047 451.99717436 -15.56298828 448.34130859 C-19.54503286 441.01669382 -23.65763086 433.78269952 -27.87548828 426.59130859 C-32.82013722 418.14889584 -37.74009709 409.69316733 -42.62548828 401.21630859 C-43.54793335 399.61650146 -43.54793335 399.61650146 -44.48901367 397.984375 C-47.41589402 392.90664353 -50.34019192 387.8274365 -53.26106262 382.74624634 C-54.28448083 380.9662952 -55.30851841 379.1867019 -56.33276367 377.40722656 C-57.61577455 375.17781522 -58.89758916 372.94771484 -60.17797852 370.71679688 C-61.32426401 368.72563833 -62.47804031 366.73876613 -63.640625 364.75708008 C-64.61033797 363.08647485 -65.55399772 361.4001685 -66.45800781 359.69311523 C-69.39476581 354.38864913 -72.11524555 352.61996309 -77.81298828 350.77880859 C-99.33934812 342.82060705 -117.78711509 328.90391518 -134.18798828 313.09130859 C-135.01427734 312.32818359 -135.84056641 311.56505859 -136.69189453 310.77880859 C-167.24876125 281.74242802 -186.61062076 236.97187167 -188.3125 195.0222168 C-189.45586065 145.86125962 -176.40675882 97.18129599 -141.75048828 60.76513672 C-140.74320604 59.72531952 -139.73229253 58.68900764 -138.71777344 57.65625 C-137.16028271 56.06296631 -135.63254338 54.44464791 -134.10595703 52.82177734 C-100.14223357 17.20128689 -53.08082879 1.85159131 -4.93457031 0.18652344 C-3.28952708 0.12949527 -1.64459998 0.06863205 0 0 Z M-38.18798828 64.09130859 C-39.40873047 64.45353516 -40.62947266 64.81576172 -41.88720703 65.18896484 C-73.6437626 75.67965229 -99.5613151 97.9118362 -114.99658203 127.52880859 C-128.93406243 155.65619466 -132.25705503 190.71655053 -122.34228516 220.64404297 C-116.97297955 235.93117421 -109.88045259 249.81627841 -99.18798828 262.09130859 C-98.47771484 262.92275391 -97.76744141 263.75419922 -97.03564453 264.61083984 C-79.25448532 284.95448597 -57.25526219 297.5678606 -31.18798828 304.09130859 C-30.26115234 304.32591797 -29.33431641 304.56052734 -28.37939453 304.80224609 C3.47741178 311.66065369 37.0064385 303.76370907 64.20654297 286.54443359 C70.18952204 282.58475415 75.52650387 277.92458048 80.81201172 273.09130859 C81.61123047 272.37458984 82.41044922 271.65787109 83.23388672 270.91943359 C103.33962237 251.9544489 117.61817797 222.50159109 118.97314453 194.79663086 C119.4528415 173.23985611 119.4528415 173.23985611 115.81201172 152.09130859 C115.47169922 150.86283203 115.13138672 149.63435547 114.78076172 148.36865234 C106.15685414 120.19527858 87.84418194 94.86047309 62.81201172 79.09130859 C61.80009766 78.44548828 60.78818359 77.79966797 59.74560547 77.13427734 C30.79174375 59.58749904 -5.61740212 54.28710296 -38.18798828 64.09130859 Z " fill="#FF5C5C" transform="translate(260.18798828125,26.90869140625)"/>
</svg>
